<svg width="40" height="40" viewBox="0 0 40 40" fill="none" xmlns="http://www.w3.org/2000/svg">
<path d="M20 5.5C12 5.5 5.5 12 5.5 20C5.5 28 12 34.5 20 34.5C28 34.5 34.5 28 34.5 20C34.5 12 27.9839 5.5 20 5.5ZM20 32.0645C18.7903 32.0645 17.2097 29.6774 16.371 25.6613H23.6129C22.7903 29.6774 21.1935 32.0645 20 32.0645ZM16 23.2419C15.8871 22.2258 15.8226 21.1452 15.8226 19.9839C15.8226 18.8226 15.8871 17.7419 16 16.7258H23.9839C24.0968 17.7419 24.1613 18.8226 24.1613 19.9839C24.1613 21.1452 24.0968 22.2258 23.9839 23.2419H16ZM7.91935 20C7.91935 18.871 8.08065 17.7742 8.37097 16.7419H13.5645C13.4516 17.8226 13.3871 18.9194 13.3871 20C13.3871 21.0806 13.4516 22.1774 13.5645 23.2581H8.37097C8.08065 22.2258 7.91935 21.129 7.91935 20ZM20 7.91935C21.2097 7.91935 22.7903 10.3065 23.6129 14.3226H16.371C17.1935 10.3065 18.7903 7.91935 20 7.91935ZM26.4032 16.7419H31.5968C31.8871 17.7742 32.0484 18.871 32.0484 20C32.0484 21.129 31.8871 22.2258 31.5968 23.2581H26.4032C26.5161 22.1774 26.5806 21.0806 26.5806 20C26.5806 18.9194 26.5161 17.8226 26.4032 16.7419ZM30.6452 14.3226H26.0645C25.6774 12.1774 25.0484 10.2258 24.2097 8.69355C26.9677 9.72581 29.2581 11.7419 30.6452 14.3226ZM15.7742 8.69355C14.9355 10.2258 14.3065 12.1774 13.9194 14.3226H9.33871C10.7097 11.7419 13.0161 9.72581 15.7742 8.69355ZM9.33871 25.6613H13.9194C14.3065 27.8065 14.9355 29.7581 15.7742 31.2903C13 30.2581 10.7097 28.2419 9.33871 25.6613ZM24.2097 31.2903C25.0484 29.7581 25.6774 27.8065 26.0645 25.6613H30.6452C29.2742 28.2419 26.9677 30.2581 24.2097 31.2903Z" fill="white"/>
</svg>
