<svg width="40" height="40" viewBox="0 0 40 40" fill="none" xmlns="http://www.w3.org/2000/svg">
<path fill-rule="evenodd" clip-rule="evenodd" d="M23.951 9.12772C24.9776 8.01223 25.4927 6.80707 25.4927 5.51632C25.4927 5.34513 25.484 5.17255 25.4631 5C24.7479 5.03396 23.9876 5.23234 23.1837 5.59104C22.378 5.95517 21.7137 6.41165 21.1913 6.96063C20.1451 8.04489 19.5559 9.37099 19.5559 10.6101C19.5559 10.7814 19.5679 10.9443 19.5886 11.0992C21.2136 11.2201 22.7121 10.4538 23.951 9.12772ZM29.5418 29.0235C30.09 28.1948 30.5631 27.2934 30.9628 26.3142C31.1276 25.899 31.2825 25.4664 31.4294 25.0149C30.7523 24.7138 30.1438 24.29 29.5989 23.7415C28.3965 22.5599 27.7847 21.0716 27.7668 19.2832C27.7472 16.9872 28.7309 15.1974 30.7197 13.9195C29.6087 12.2448 27.9381 11.3152 25.7144 11.1249C24.8938 11.051 23.892 11.2386 22.7052 11.6915C21.4501 12.1799 20.7097 12.4249 20.4913 12.4249C20.1991 12.4249 19.5326 12.2154 18.4947 11.8022C17.4538 11.3905 16.6162 11.1809 15.9775 11.1809C14.8102 11.2015 13.7263 11.5233 12.7231 12.1548C11.7199 12.7863 10.9184 13.6465 10.3159 14.737C9.54924 16.0946 9.1665 17.7147 9.1665 19.5931C9.1665 21.2329 9.45038 22.9266 10.0167 24.6758C10.5454 26.2952 11.2203 27.7156 12.0413 28.9405C12.8064 30.0876 13.4452 30.8972 13.9558 31.3696C14.7559 32.1585 15.5574 32.5339 16.3616 32.4976C16.8903 32.4786 17.5819 32.2865 18.4404 31.918C19.2975 31.5512 20.0989 31.3696 20.8461 31.3696C21.5586 31.3696 22.3378 31.5512 23.1856 31.918C24.0307 32.2865 24.7567 32.4682 25.3587 32.4682C26.1973 32.4474 26.9804 32.0824 27.7113 31.3696C28.1828 30.9353 28.7946 30.1533 29.5418 29.0235Z" fill="white"/>
</svg>
