<svg width="40" height="40" viewBox="0 0 40 40" fill="none" xmlns="http://www.w3.org/2000/svg">
<path fill-rule="evenodd" clip-rule="evenodd" d="M27.5186 26.4203C27.5184 27.3051 26.7744 28.0287 25.8652 28.0287H24.4717V31.726C24.4711 32.614 23.7318 33.3342 22.8193 33.3344C21.9067 33.3344 21.1666 32.6141 21.166 31.726V28.0287H18.9102V31.726C18.9097 32.6141 18.1695 33.3344 17.2568 33.3344C16.3443 33.3342 15.6049 32.614 15.6045 31.726V28.0287H14.2109C13.3018 28.0287 12.5578 27.3051 12.5576 26.4203V15.8139H27.5186V26.4203ZM9.65332 14.8988C10.5658 14.8989 11.306 15.6192 11.3066 16.5072V23.266C11.3061 24.1541 10.5659 24.8743 9.65332 24.8744C8.74066 24.8744 8.00053 24.1541 8 23.266V16.5072C8.00068 15.6191 8.74075 14.8988 9.65332 14.8988ZM30.6943 14.8988C31.6069 14.8988 32.347 15.6191 32.3477 16.5072V23.266C32.3472 24.1541 31.607 24.8744 30.6943 24.8744C29.7818 24.8742 29.0425 24.154 29.042 23.266V16.5072C29.0426 15.6193 29.7819 14.899 30.6943 14.8988ZM15.2432 6.6996C15.3736 6.6307 15.5367 6.67815 15.6074 6.80507L16.7686 8.88905C17.7563 8.47238 18.8657 8.23866 20.0381 8.23866C21.2017 8.23866 22.303 8.46943 23.2852 8.88026L24.4404 6.80507C24.5111 6.6782 24.6742 6.63082 24.8047 6.6996C24.9351 6.76839 24.9838 6.92714 24.9131 7.05409L23.7715 9.10292C25.6266 10.031 26.9794 11.6292 27.3887 13.516C27.4349 13.7292 27.4696 13.9463 27.4912 14.1664V14.9418H12.5625C12.5597 14.8685 12.5576 14.7949 12.5576 14.7211C12.5576 14.2278 12.6218 13.7472 12.7422 13.2855C13.2063 11.5065 14.515 10.0051 16.2832 9.11366L15.1357 7.05409C15.0651 6.92729 15.1131 6.76852 15.2432 6.6996ZM16.6221 10.9994C16.2341 10.9994 15.9189 11.3063 15.9189 11.684C15.9192 12.0614 16.2342 12.3676 16.6221 12.3676C17.0098 12.3674 17.324 12.0613 17.3242 11.684C17.3242 11.3064 17.0099 10.9996 16.6221 10.9994ZM23.4268 10.9994C23.0389 10.9996 22.7246 11.3064 22.7246 11.684C22.7248 12.0613 23.039 12.3674 23.4268 12.3676C23.8146 12.3676 24.1297 12.0614 24.1299 11.684C24.1299 11.3063 23.8148 10.9994 23.4268 10.9994Z" fill="white"/>
</svg>
