<svg width="20" height="19" viewBox="0 0 20 19" fill="none" xmlns="http://www.w3.org/2000/svg">
<path d="M10.7918 9.45592L16.0659 4.44546C16.2956 4.22729 16.2956 3.86618 16.0659 3.648C15.8363 3.42983 15.4562 3.42983 15.2265 3.648L9.95234 8.65846L4.67818 3.648C4.44852 3.42983 4.0684 3.42983 3.83875 3.648C3.60909 3.86618 3.60909 4.22729 3.83875 4.44546L9.11291 9.45592L3.83875 14.4664C3.60909 14.6845 3.60909 15.0457 3.83875 15.2638C3.95753 15.3767 4.108 15.4293 4.25846 15.4293C4.40893 15.4293 4.55939 15.3767 4.67818 15.2638L9.95234 10.2534L15.2265 15.2638C15.3453 15.3767 15.4957 15.4293 15.6462 15.4293C15.7967 15.4293 15.9471 15.3767 16.0659 15.2638C16.2956 15.0457 16.2956 14.6845 16.0659 14.4664L10.7918 9.45592Z" fill="white"/>
</svg>
