<svg width="16" height="16" viewBox="0 0 16 16" fill="none" xmlns="http://www.w3.org/2000/svg">
<path d="M11.3784 12.7044H12.3655C12.4254 12.7044 12.4746 12.6852 12.513 12.6468C12.5515 12.6082 12.5707 12.559 12.5707 12.4993V3.57626C12.5707 3.51637 12.5515 3.46721 12.513 3.42876C12.4746 3.39032 12.4254 3.37109 12.3655 3.37109H11.3784C11.3186 3.37109 11.2695 3.39032 11.231 3.42876C11.1925 3.46721 11.1732 3.51637 11.1732 3.57626V12.4993C11.1732 12.559 11.1925 12.6082 11.231 12.6468C11.2695 12.6852 11.3186 12.7044 11.3784 12.7044ZM5.21235 9.07709C5.32302 8.96654 5.37835 8.82954 5.37835 8.66609C5.37835 8.50276 5.32308 8.36576 5.21252 8.25509C5.10208 8.14443 4.96513 8.08909 4.80169 8.08909C4.63835 8.08909 4.5013 8.14432 4.39052 8.25476C4.27985 8.36532 4.22452 8.50232 4.22452 8.66576C4.22452 8.82909 4.2798 8.96609 4.39035 9.07676C4.50091 9.18743 4.63785 9.24276 4.80119 9.24276C4.96463 9.24276 5.10169 9.18754 5.21235 9.07709ZM5.21235 11.0771C5.32302 10.9665 5.37835 10.8295 5.37835 10.6661C5.37835 10.5028 5.32308 10.3658 5.21252 10.2551C5.10208 10.1444 4.96513 10.0891 4.80169 10.0891C4.63835 10.0891 4.5013 10.1443 4.39052 10.2548C4.27985 10.3653 4.22452 10.5023 4.22452 10.6658C4.22452 10.8291 4.2798 10.9661 4.39035 11.0768C4.50091 11.1874 4.63785 11.2428 4.80119 11.2428C4.96463 11.2428 5.10169 11.1875 5.21235 11.0771ZM4.22452 7.16593H9.37835V4.83259H4.22452V7.16593ZM7.21235 9.07709C7.32302 8.96654 7.37835 8.82954 7.37835 8.66609C7.37835 8.50276 7.32308 8.36576 7.21252 8.25509C7.10208 8.14443 6.96513 8.08909 6.80169 8.08909C6.63835 8.08909 6.5013 8.14432 6.39052 8.25476C6.27985 8.36532 6.22452 8.50232 6.22452 8.66576C6.22452 8.82909 6.2798 8.96609 6.39035 9.07676C6.50091 9.18743 6.63785 9.24276 6.80119 9.24276C6.96463 9.24276 7.10169 9.18754 7.21235 9.07709ZM7.21235 11.0771C7.32302 10.9665 7.37835 10.8295 7.37835 10.6661C7.37835 10.5028 7.32308 10.3658 7.21252 10.2551C7.10208 10.1444 6.96513 10.0891 6.80169 10.0891C6.63835 10.0891 6.5013 10.1443 6.39052 10.2548C6.27985 10.3653 6.22452 10.5023 6.22452 10.6658C6.22452 10.8291 6.2798 10.9661 6.39035 11.0768C6.50091 11.1874 6.63785 11.2428 6.80119 11.2428C6.96463 11.2428 7.10169 11.1875 7.21235 11.0771ZM9.21235 9.07709C9.32302 8.96654 9.37835 8.82954 9.37835 8.66609C9.37835 8.50276 9.32308 8.36576 9.21252 8.25509C9.10208 8.14443 8.96513 8.08909 8.80169 8.08909C8.63835 8.08909 8.5013 8.14432 8.39052 8.25476C8.27985 8.36532 8.22452 8.50232 8.22452 8.66576C8.22452 8.82909 8.2798 8.96609 8.39035 9.07676C8.50091 9.18743 8.63785 9.24276 8.80119 9.24276C8.96463 9.24276 9.10169 9.18754 9.21235 9.07709ZM9.21235 11.0771C9.32302 10.9665 9.37835 10.8295 9.37835 10.6661C9.37835 10.5028 9.32308 10.3658 9.21252 10.2551C9.10208 10.1444 8.96513 10.0891 8.80169 10.0891C8.63835 10.0891 8.5013 10.1443 8.39052 10.2548C8.27985 10.3653 8.22452 10.5023 8.22452 10.6658C8.22452 10.8291 8.2798 10.9661 8.39035 11.0768C8.50091 11.1874 8.63785 11.2428 8.80119 11.2428C8.96463 11.2428 9.10169 11.1875 9.21235 11.0771ZM10.1734 12.0378V4.03776H3.63485C3.57497 4.03776 3.5258 4.05698 3.48735 4.09543C3.44891 4.13387 3.42969 4.18304 3.42969 4.24293V11.8326C3.42969 11.8924 3.44891 11.9415 3.48735 11.9801C3.5258 12.0185 3.57497 12.0378 3.63485 12.0378H10.1734ZM11.3784 13.7044C11.1347 13.7044 10.9201 13.6422 10.7347 13.5178C10.5494 13.3934 10.4062 13.2334 10.3054 13.0378H3.63485C3.30341 13.0378 3.01969 12.9198 2.78369 12.6838C2.54769 12.4478 2.42969 12.164 2.42969 11.8326V4.24293C2.42969 3.91148 2.54769 3.62776 2.78369 3.39176C3.01969 3.15576 3.30341 3.03776 3.63485 3.03776H10.3054C10.4062 2.84198 10.5494 2.68193 10.7347 2.55759C10.9201 2.43326 11.1347 2.37109 11.3784 2.37109H12.3655C12.697 2.37109 12.9807 2.48909 13.2167 2.72509C13.4527 2.96109 13.5707 3.24482 13.5707 3.57626V12.4993C13.5707 12.8307 13.4527 13.1144 13.2167 13.3504C12.9807 13.5864 12.697 13.7044 12.3655 13.7044H11.3784Z" fill="white"/>
</svg>
