<svg width="16" height="16" viewBox="0 0 16 16" fill="none" xmlns="http://www.w3.org/2000/svg">
<path d="M1.57617 13.7174V2.05078H7.90934V4.71745H14.4222V13.7174H1.57617ZM2.57601 12.7174H4.24284V11.0508H2.57601V12.7174ZM2.57601 10.0508H4.24284V8.38411H2.57601V10.0508ZM2.57601 7.38411H4.24284V5.71745H2.57601V7.38411ZM2.57601 4.71745H4.24284V3.05078H2.57601V4.71745ZM5.24267 12.7174H6.90951V11.0508H5.24267V12.7174ZM5.24267 10.0508H6.90951V8.38411H5.24267V10.0508ZM5.24267 7.38411H6.90951V5.71745H5.24267V7.38411ZM5.24267 4.71745H6.90951V3.05078H5.24267V4.71745ZM7.90934 12.7174H13.4223V5.71745H7.90934V7.38411H9.37101V8.38411H7.90934V10.0508H9.37101V11.0508H7.90934V12.7174ZM10.8325 8.38411V7.38411H11.8325V8.38411H10.8325ZM10.8325 11.0508V10.0508H11.8325V11.0508H10.8325Z" fill="white"/>
</svg>
