<svg width="16" height="16" viewBox="0 0 16 16" fill="none" xmlns="http://www.w3.org/2000/svg">
<path d="M2.87118 13C2.5344 13 2.24935 12.8833 2.01602 12.65C1.78268 12.4167 1.66602 12.1316 1.66602 11.7948V4.20517C1.66602 3.86839 1.78268 3.58333 2.01602 3.35C2.24935 3.11667 2.5344 3 2.87118 3H13.1275C13.4643 3 13.7493 3.11667 13.9827 3.35C14.216 3.58333 14.3327 3.86839 14.3327 4.20517V11.7948C14.3327 12.1316 14.216 12.4167 13.9827 12.65C13.7493 12.8833 13.4643 13 13.1275 13H2.87118ZM7.99935 8.37183L2.66602 4.9615V11.7948C2.66602 11.8547 2.68524 11.9039 2.72368 11.9423C2.76213 11.9808 2.81129 12 2.87118 12H13.1275C13.1874 12 13.2366 11.9808 13.275 11.9423C13.3135 11.9039 13.3327 11.8547 13.3327 11.7948V4.9615L7.99935 8.37183ZM7.99935 7.33333L13.2302 4H2.76852L7.99935 7.33333ZM2.66602 4.9615V4V11.7948C2.66602 11.8547 2.68524 11.9039 2.72368 11.9423C2.76213 11.9808 2.81129 12 2.87118 12H2.66602V4.9615Z" fill="white"/>
</svg>
