<svg width="92" height="23" viewBox="0 0 92 23" fill="none" xmlns="http://www.w3.org/2000/svg">
<g clip-path="url(#clip0_4489_4547)">
<path d="M10.846 17.8698C7.16826 17.8698 4.18763 14.8238 4.18763 11.0676C4.18763 7.31132 7.16826 4.2645 10.846 4.2645C14.5238 4.2645 17.5044 7.31041 17.5044 11.0667C17.5044 12.5622 17.0263 13.94 16.2264 15.0631L18.2489 17.5703C19.72 15.8236 20.612 13.5529 20.612 11.0676C20.612 5.55645 16.2398 1.08984 10.846 1.08984C5.45227 1.08984 1.08008 5.55645 1.08008 11.0667C1.08008 16.5769 5.45227 21.0435 10.846 21.0435C12.5289 21.0435 14.1118 20.6089 15.4944 19.8428L13.4611 17.3228C12.6585 17.6735 11.7746 17.8688 10.846 17.8688V17.8698Z" fill="white"/>
<path d="M18.2487 17.5703C17.4756 18.4879 16.5434 19.2622 15.4941 19.8438L16.6766 21.3101C17.2959 22.078 18.4176 22.1885 19.1692 21.5548C19.9209 20.9221 20.029 19.7762 19.4087 19.0084L18.2487 17.5703Z" fill="white"/>
<path d="M33.819 18.2411H31.4121V4.67969H33.819V18.2411Z" fill="white"/>
<path d="M54.9856 18.2396H52.56V10.1628L48.2924 17.8324C48.1869 18.0277 48.0403 18.1757 47.8527 18.277C47.6641 18.3774 47.4621 18.4286 47.2458 18.4286C47.0295 18.4286 46.84 18.3784 46.6577 18.277C46.4754 18.1766 46.3324 18.0277 46.2269 17.8324L41.9405 10.1628V18.2396H39.5337V5.72814C39.5337 5.44418 39.615 5.19218 39.7786 4.97214C39.9421 4.75118 40.1566 4.60327 40.4221 4.52749C40.5517 4.49644 40.6813 4.48457 40.8109 4.4937C40.9404 4.50375 41.0656 4.53205 41.1862 4.57862C41.306 4.6261 41.4159 4.69183 41.5142 4.77766C41.6125 4.86257 41.6966 4.96484 41.7645 5.08444L47.2449 14.8157L52.7253 5.08444C52.8675 4.84523 53.0632 4.67449 53.3134 4.57405C53.5637 4.47362 53.8238 4.45718 54.0955 4.52657C54.3546 4.60236 54.5674 4.75027 54.7345 4.97123C54.9007 5.19218 54.9847 5.44418 54.9847 5.72723V18.2387L54.9856 18.2396Z" fill="white"/>
<path d="M73.1016 12.7541C73.1016 13.385 73.0194 13.9785 72.8567 14.5363C72.6931 15.0942 72.4617 15.6 72.1623 16.0538C71.8629 16.5076 71.5018 16.9048 71.079 17.2453C70.6563 17.5859 70.1853 17.8534 69.6669 18.0488L71.9808 19.8165H68.4908L66.6774 18.4277H64.3071C63.5108 18.4277 62.7735 18.2871 62.0951 18.0068C61.4168 17.7265 60.8305 17.3339 60.3362 16.8299C59.842 16.3259 59.455 15.726 59.1744 15.033C58.8937 14.34 58.7534 13.5795 58.7534 12.7541V10.1628C58.7534 9.34293 58.8937 8.58511 59.1744 7.88846C59.455 7.1918 59.842 6.59285 60.3362 6.09159C60.8296 5.59032 61.4159 5.19772 62.0951 4.91376C62.7735 4.6298 63.5117 4.48828 64.3071 4.48828H67.5657C68.3621 4.48828 69.0976 4.6298 69.7742 4.91376C70.4498 5.19772 71.0344 5.59032 71.5286 6.09159C72.0219 6.59285 72.408 7.1918 72.686 7.88846C72.9639 8.58511 73.1025 9.34293 73.1025 10.1628V12.7541H73.1016ZM70.6947 10.1628C70.6947 9.67711 70.6197 9.23793 70.4677 8.8435C70.3167 8.44906 70.104 8.11215 69.8287 7.83185C69.5543 7.55154 69.2236 7.33424 68.8384 7.17902C68.4523 7.02472 68.0287 6.94711 67.5657 6.94711H64.3071C63.8379 6.94711 63.4107 7.02472 63.0255 7.17902C62.6394 7.33333 62.3078 7.55063 62.0299 7.83185C61.7519 8.11215 61.5374 8.44998 61.3864 8.8435C61.2353 9.23793 61.1594 9.67711 61.1594 10.1628V12.7541C61.1594 13.2398 61.2345 13.679 61.3864 14.0734C61.5374 14.4678 61.7519 14.8048 62.0299 15.0851C62.3078 15.3654 62.6394 15.5827 63.0255 15.7379C63.4107 15.8922 63.8388 15.9698 64.3071 15.9698H67.547C68.0162 15.9698 68.4434 15.8931 68.8295 15.7379C69.2147 15.5836 69.5472 15.3663 69.8242 15.0851C70.1022 14.8048 70.3167 14.4669 70.4677 14.0734C70.6188 13.679 70.6947 13.2398 70.6947 12.7541V10.1628Z" fill="white"/>
<path d="M90.8954 18.2411H88.4885V14.9122H80.0275V18.2411H77.6206V11.4599C77.6206 10.4702 77.7877 9.55899 78.1202 8.72721C78.4536 7.89451 78.9165 7.1796 79.5091 6.58064C80.1016 5.98169 80.8014 5.51512 81.6103 5.18095C82.4191 4.84677 83.3012 4.67969 84.2575 4.67969H89.6826C89.8497 4.67969 90.007 4.71164 90.1554 4.77464C90.3028 4.83764 90.4333 4.9253 90.5441 5.03943C90.6559 5.15264 90.7417 5.28504 90.8033 5.4366C90.865 5.58725 90.8963 5.74886 90.8963 5.91869V18.2411H90.8954ZM80.0275 12.4533H88.4885V7.13851H84.2575C84.1834 7.13851 84.0279 7.14947 83.7901 7.17138C83.5524 7.1933 83.278 7.24899 82.9661 7.33664C82.6542 7.42521 82.3253 7.56034 81.9803 7.74295C81.6344 7.92556 81.3171 8.17847 81.0267 8.49986C80.7371 8.82125 80.4976 9.22299 80.309 9.70508C80.1204 10.1881 80.0266 10.7724 80.0266 11.459V12.4524L80.0275 12.4533Z" fill="white"/>
</g>
<defs>
<clipPath id="clip0_4489_4547">
<rect width="90" height="21" fill="white" transform="translate(1 1)"/>
</clipPath>
</defs>
</svg>
